<?xml version="1.0" standalone="no"?>
<!DOCTYPE svg PUBLIC "-//W3C//DTD SVG 20010904//EN"
 "http://www.w3.org/TR/2001/REC-SVG-20010904/DTD/svg10.dtd">
<svg version="1.0" xmlns="http://www.w3.org/2000/svg"
 width="500.000000pt" height="500.000000pt" viewBox="0 0 500.000000 500.000000"
 preserveAspectRatio="xMidYMid meet">
<metadata>
Created by potrace 1.11, written by Peter Selinger 2001-2013
</metadata>
<g transform="translate(0.000000,500.000000) scale(0.100000,-0.100000)"
fill="#000000" stroke="none">
<path d="M2245 4988 c-119 -14 -296 -47 -390 -73 -49 -14 -97 -27 -105 -29
-44 -11 -171 -60 -257 -97 -330 -145 -630 -364 -868 -633 -33 -37 -90 -109
-128 -159 -37 -51 -71 -96 -75 -102 -4 -5 -29 -46 -55 -90 -26 -44 -52 -87
-57 -95 -5 -8 -29 -56 -53 -105 -91 -187 -155 -371 -200 -576 -42 -188 -52
-297 -52 -529 1 -203 7 -284 35 -436 59 -323 171 -611 347 -892 37 -59 69
-109 73 -112 3 -3 27 -34 54 -70 233 -313 581 -589 965 -763 164 -75 406 -150
571 -176 36 -6 76 -13 90 -16 74 -13 123 -16 310 -20 113 -2 234 0 270 5 36 5
88 11 115 14 104 10 280 51 424 97 703 226 1263 745 1546 1434 49 119 105 294
119 370 9 50 17 89 21 105 3 8 7 33 10 55 4 22 8 47 10 55 26 99 26 573 0 707
-2 11 -6 38 -9 59 -3 22 -8 50 -11 64 -3 14 -7 34 -9 45 -12 58 -50 196 -80
283 -212 623 -658 1134 -1247 1428 -267 133 -479 197 -829 249 -68 11 -455 13
-535 3z"/>
</g>
</svg>
